<svg xmlns="http://www.w3.org/2000/svg" width="840" height="310" viewBox="0 0 840 310" fill="none">
  <rect width="840" height="310" rx="12" fill="#0d1117" />
  <rect width="840" height="310" rx="12" fill="none" stroke="#30363d" stroke-width="1" />

  <text x="30" y="42" fill="#e6edf3" font-size="16" font-weight="600" font-family="-apple-system, BlinkMacSystemFont, 'Segoe UI', Helvetica, Arial, sans-serif">GitHub Activity</text>
  <text x="810" y="32" fill="#7d8590" font-size="11" text-anchor="end" font-family="-apple-system, BlinkMacSystemFont, 'Segoe UI', Helvetica, Arial, sans-serif">Member since 2022</text>
  <text x="810" y="48" fill="#7d8590" font-size="10" text-anchor="end" font-family="-apple-system, BlinkMacSystemFont, 'Segoe UI', Helvetica, Arial, sans-serif">Updated Apr 16, 2026</text>
  <line x1="30" y1="55" x2="810" y2="55" stroke="#30363d" stroke-width="1" />

  
      <text x="105" y="88" fill="#58a6ff" font-size="28" font-weight="700" text-anchor="middle" font-family="-apple-system, BlinkMacSystemFont, 'Segoe UI', Helvetica, Arial, sans-serif">13</text>
      <text x="105" y="108" fill="#7d8590" font-size="11" text-anchor="middle" font-family="-apple-system, BlinkMacSystemFont, 'Segoe UI', Helvetica, Arial, sans-serif">Contributions</text>

      <text x="315" y="88" fill="#58a6ff" font-size="28" font-weight="700" text-anchor="middle" font-family="-apple-system, BlinkMacSystemFont, 'Segoe UI', Helvetica, Arial, sans-serif">11</text>
      <text x="315" y="108" fill="#7d8590" font-size="11" text-anchor="middle" font-family="-apple-system, BlinkMacSystemFont, 'Segoe UI', Helvetica, Arial, sans-serif">Commits</text>

      <text x="525" y="88" fill="#58a6ff" font-size="28" font-weight="700" text-anchor="middle" font-family="-apple-system, BlinkMacSystemFont, 'Segoe UI', Helvetica, Arial, sans-serif">1</text>
      <text x="525" y="108" fill="#7d8590" font-size="11" text-anchor="middle" font-family="-apple-system, BlinkMacSystemFont, 'Segoe UI', Helvetica, Arial, sans-serif">Repositories</text>

      <text x="735" y="88" fill="#58a6ff" font-size="28" font-weight="700" text-anchor="middle" font-family="-apple-system, BlinkMacSystemFont, 'Segoe UI', Helvetica, Arial, sans-serif">0</text>
      <text x="735" y="108" fill="#7d8590" font-size="11" text-anchor="middle" font-family="-apple-system, BlinkMacSystemFont, 'Segoe UI', Helvetica, Arial, sans-serif">Stars</text>

  <line x1="30" y1="130" x2="810" y2="130" stroke="#30363d" stroke-width="1" />

  <text x="30" y="152" fill="#e6edf3" font-size="12" font-weight="600" font-family="-apple-system, BlinkMacSystemFont, 'Segoe UI', Helvetica, Arial, sans-serif">Recent Activity</text>
  
<text x="42" y="181.5" fill="#7d8590" font-size="9" text-anchor="end" font-family="-apple-system, BlinkMacSystemFont, 'Segoe UI', Helvetica, Arial, sans-serif">Mon</text>

<text x="42" y="207.5" fill="#7d8590" font-size="9" text-anchor="end" font-family="-apple-system, BlinkMacSystemFont, 'Segoe UI', Helvetica, Arial, sans-serif">Wed</text>

<text x="42" y="233.5" fill="#7d8590" font-size="9" text-anchor="end" font-family="-apple-system, BlinkMacSystemFont, 'Segoe UI', Helvetica, Arial, sans-serif">Fri</text>

  <rect x="50" y="160" width="11" height="11" rx="2" fill="#161b22"><title>2025-10-26: 0</title></rect>
<rect x="50" y="173" width="11" height="11" rx="2" fill="#161b22"><title>2025-10-27: 0</title></rect>
<rect x="50" y="186" width="11" height="11" rx="2" fill="#161b22"><title>2025-10-28: 0</title></rect>
<rect x="50" y="199" width="11" height="11" rx="2" fill="#161b22"><title>2025-10-29: 0</title></rect>
<rect x="50" y="212" width="11" height="11" rx="2" fill="#161b22"><title>2025-10-30: 0</title></rect>
<rect x="50" y="225" width="11" height="11" rx="2" fill="#161b22"><title>2025-10-31: 0</title></rect>
<rect x="50" y="238" width="11" height="11" rx="2" fill="#161b22"><title>2025-11-01: 0</title></rect>
<rect x="63" y="160" width="11" height="11" rx="2" fill="#161b22"><title>2025-11-02: 0</title></rect>
<rect x="63" y="173" width="11" height="11" rx="2" fill="#161b22"><title>2025-11-03: 0</title></rect>
<rect x="63" y="186" width="11" height="11" rx="2" fill="#161b22"><title>2025-11-04: 0</title></rect>
<rect x="63" y="199" width="11" height="11" rx="2" fill="#161b22"><title>2025-11-05: 0</title></rect>
<rect x="63" y="212" width="11" height="11" rx="2" fill="#161b22"><title>2025-11-06: 0</title></rect>
<rect x="63" y="225" width="11" height="11" rx="2" fill="#26a641"><title>2025-11-07: 5</title></rect>
<rect x="63" y="238" width="11" height="11" rx="2" fill="#161b22"><title>2025-11-08: 0</title></rect>
<rect x="76" y="160" width="11" height="11" rx="2" fill="#161b22"><title>2025-11-09: 0</title></rect>
<rect x="76" y="173" width="11" height="11" rx="2" fill="#161b22"><title>2025-11-10: 0</title></rect>
<rect x="76" y="186" width="11" height="11" rx="2" fill="#161b22"><title>2025-11-11: 0</title></rect>
<rect x="76" y="199" width="11" height="11" rx="2" fill="#161b22"><title>2025-11-12: 0</title></rect>
<rect x="76" y="212" width="11" height="11" rx="2" fill="#161b22"><title>2025-11-13: 0</title></rect>
<rect x="76" y="225" width="11" height="11" rx="2" fill="#161b22"><title>2025-11-14: 0</title></rect>
<rect x="76" y="238" width="11" height="11" rx="2" fill="#161b22"><title>2025-11-15: 0</title></rect>
<rect x="89" y="160" width="11" height="11" rx="2" fill="#161b22"><title>2025-11-16: 0</title></rect>
<rect x="89" y="173" width="11" height="11" rx="2" fill="#161b22"><title>2025-11-17: 0</title></rect>
<rect x="89" y="186" width="11" height="11" rx="2" fill="#161b22"><title>2025-11-18: 0</title></rect>
<rect x="89" y="199" width="11" height="11" rx="2" fill="#161b22"><title>2025-11-19: 0</title></rect>
<rect x="89" y="212" width="11" height="11" rx="2" fill="#161b22"><title>2025-11-20: 0</title></rect>
<rect x="89" y="225" width="11" height="11" rx="2" fill="#161b22"><title>2025-11-21: 0</title></rect>
<rect x="89" y="238" width="11" height="11" rx="2" fill="#161b22"><title>2025-11-22: 0</title></rect>
<rect x="102" y="160" width="11" height="11" rx="2" fill="#161b22"><title>2025-11-23: 0</title></rect>
<rect x="102" y="173" width="11" height="11" rx="2" fill="#161b22"><title>2025-11-24: 0</title></rect>
<rect x="102" y="186" width="11" height="11" rx="2" fill="#161b22"><title>2025-11-25: 0</title></rect>
<rect x="102" y="199" width="11" height="11" rx="2" fill="#161b22"><title>2025-11-26: 0</title></rect>
<rect x="102" y="212" width="11" height="11" rx="2" fill="#161b22"><title>2025-11-27: 0</title></rect>
<rect x="102" y="225" width="11" height="11" rx="2" fill="#161b22"><title>2025-11-28: 0</title></rect>
<rect x="102" y="238" width="11" height="11" rx="2" fill="#161b22"><title>2025-11-29: 0</title></rect>
<rect x="115" y="160" width="11" height="11" rx="2" fill="#161b22"><title>2025-11-30: 0</title></rect>
<rect x="115" y="173" width="11" height="11" rx="2" fill="#161b22"><title>2025-12-01: 0</title></rect>
<rect x="115" y="186" width="11" height="11" rx="2" fill="#161b22"><title>2025-12-02: 0</title></rect>
<rect x="115" y="199" width="11" height="11" rx="2" fill="#161b22"><title>2025-12-03: 0</title></rect>
<rect x="115" y="212" width="11" height="11" rx="2" fill="#161b22"><title>2025-12-04: 0</title></rect>
<rect x="115" y="225" width="11" height="11" rx="2" fill="#161b22"><title>2025-12-05: 0</title></rect>
<rect x="115" y="238" width="11" height="11" rx="2" fill="#161b22"><title>2025-12-06: 0</title></rect>
<rect x="128" y="160" width="11" height="11" rx="2" fill="#161b22"><title>2025-12-07: 0</title></rect>
<rect x="128" y="173" width="11" height="11" rx="2" fill="#161b22"><title>2025-12-08: 0</title></rect>
<rect x="128" y="186" width="11" height="11" rx="2" fill="#161b22"><title>2025-12-09: 0</title></rect>
<rect x="128" y="199" width="11" height="11" rx="2" fill="#161b22"><title>2025-12-10: 0</title></rect>
<rect x="128" y="212" width="11" height="11" rx="2" fill="#161b22"><title>2025-12-11: 0</title></rect>
<rect x="128" y="225" width="11" height="11" rx="2" fill="#161b22"><title>2025-12-12: 0</title></rect>
<rect x="128" y="238" width="11" height="11" rx="2" fill="#161b22"><title>2025-12-13: 0</title></rect>
<rect x="141" y="160" width="11" height="11" rx="2" fill="#161b22"><title>2025-12-14: 0</title></rect>
<rect x="141" y="173" width="11" height="11" rx="2" fill="#161b22"><title>2025-12-15: 0</title></rect>
<rect x="141" y="186" width="11" height="11" rx="2" fill="#161b22"><title>2025-12-16: 0</title></rect>
<rect x="141" y="199" width="11" height="11" rx="2" fill="#161b22"><title>2025-12-17: 0</title></rect>
<rect x="141" y="212" width="11" height="11" rx="2" fill="#161b22"><title>2025-12-18: 0</title></rect>
<rect x="141" y="225" width="11" height="11" rx="2" fill="#161b22"><title>2025-12-19: 0</title></rect>
<rect x="141" y="238" width="11" height="11" rx="2" fill="#161b22"><title>2025-12-20: 0</title></rect>
<rect x="154" y="160" width="11" height="11" rx="2" fill="#161b22"><title>2025-12-21: 0</title></rect>
<rect x="154" y="173" width="11" height="11" rx="2" fill="#161b22"><title>2025-12-22: 0</title></rect>
<rect x="154" y="186" width="11" height="11" rx="2" fill="#161b22"><title>2025-12-23: 0</title></rect>
<rect x="154" y="199" width="11" height="11" rx="2" fill="#161b22"><title>2025-12-24: 0</title></rect>
<rect x="154" y="212" width="11" height="11" rx="2" fill="#161b22"><title>2025-12-25: 0</title></rect>
<rect x="154" y="225" width="11" height="11" rx="2" fill="#161b22"><title>2025-12-26: 0</title></rect>
<rect x="154" y="238" width="11" height="11" rx="2" fill="#161b22"><title>2025-12-27: 0</title></rect>
<rect x="167" y="160" width="11" height="11" rx="2" fill="#161b22"><title>2025-12-28: 0</title></rect>
<rect x="167" y="173" width="11" height="11" rx="2" fill="#161b22"><title>2025-12-29: 0</title></rect>
<rect x="167" y="186" width="11" height="11" rx="2" fill="#161b22"><title>2025-12-30: 0</title></rect>
<rect x="167" y="199" width="11" height="11" rx="2" fill="#161b22"><title>2025-12-31: 0</title></rect>
<rect x="167" y="212" width="11" height="11" rx="2" fill="#161b22"><title>2026-01-01: 0</title></rect>
<rect x="180" y="212" width="11" height="11" rx="2" fill="#161b22"><title>2026-01-01: 0</title></rect>
<rect x="180" y="225" width="11" height="11" rx="2" fill="#161b22"><title>2026-01-02: 0</title></rect>
<rect x="180" y="238" width="11" height="11" rx="2" fill="#161b22"><title>2026-01-03: 0</title></rect>
<rect x="193" y="160" width="11" height="11" rx="2" fill="#161b22"><title>2026-01-04: 0</title></rect>
<rect x="193" y="173" width="11" height="11" rx="2" fill="#161b22"><title>2026-01-05: 0</title></rect>
<rect x="193" y="186" width="11" height="11" rx="2" fill="#161b22"><title>2026-01-06: 0</title></rect>
<rect x="193" y="199" width="11" height="11" rx="2" fill="#161b22"><title>2026-01-07: 0</title></rect>
<rect x="193" y="212" width="11" height="11" rx="2" fill="#161b22"><title>2026-01-08: 0</title></rect>
<rect x="193" y="225" width="11" height="11" rx="2" fill="#161b22"><title>2026-01-09: 0</title></rect>
<rect x="193" y="238" width="11" height="11" rx="2" fill="#161b22"><title>2026-01-10: 0</title></rect>
<rect x="206" y="160" width="11" height="11" rx="2" fill="#161b22"><title>2026-01-11: 0</title></rect>
<rect x="206" y="173" width="11" height="11" rx="2" fill="#161b22"><title>2026-01-12: 0</title></rect>
<rect x="206" y="186" width="11" height="11" rx="2" fill="#161b22"><title>2026-01-13: 0</title></rect>
<rect x="206" y="199" width="11" height="11" rx="2" fill="#161b22"><title>2026-01-14: 0</title></rect>
<rect x="206" y="212" width="11" height="11" rx="2" fill="#161b22"><title>2026-01-15: 0</title></rect>
<rect x="206" y="225" width="11" height="11" rx="2" fill="#161b22"><title>2026-01-16: 0</title></rect>
<rect x="206" y="238" width="11" height="11" rx="2" fill="#161b22"><title>2026-01-17: 0</title></rect>
<rect x="219" y="160" width="11" height="11" rx="2" fill="#161b22"><title>2026-01-18: 0</title></rect>
<rect x="219" y="173" width="11" height="11" rx="2" fill="#161b22"><title>2026-01-19: 0</title></rect>
<rect x="219" y="186" width="11" height="11" rx="2" fill="#161b22"><title>2026-01-20: 0</title></rect>
<rect x="219" y="199" width="11" height="11" rx="2" fill="#161b22"><title>2026-01-21: 0</title></rect>
<rect x="219" y="212" width="11" height="11" rx="2" fill="#161b22"><title>2026-01-22: 0</title></rect>
<rect x="219" y="225" width="11" height="11" rx="2" fill="#161b22"><title>2026-01-23: 0</title></rect>
<rect x="219" y="238" width="11" height="11" rx="2" fill="#161b22"><title>2026-01-24: 0</title></rect>
<rect x="232" y="160" width="11" height="11" rx="2" fill="#161b22"><title>2026-01-25: 0</title></rect>
<rect x="232" y="173" width="11" height="11" rx="2" fill="#161b22"><title>2026-01-26: 0</title></rect>
<rect x="232" y="186" width="11" height="11" rx="2" fill="#161b22"><title>2026-01-27: 0</title></rect>
<rect x="232" y="199" width="11" height="11" rx="2" fill="#161b22"><title>2026-01-28: 0</title></rect>
<rect x="232" y="212" width="11" height="11" rx="2" fill="#161b22"><title>2026-01-29: 0</title></rect>
<rect x="232" y="225" width="11" height="11" rx="2" fill="#161b22"><title>2026-01-30: 0</title></rect>
<rect x="232" y="238" width="11" height="11" rx="2" fill="#161b22"><title>2026-01-31: 0</title></rect>
<rect x="245" y="160" width="11" height="11" rx="2" fill="#161b22"><title>2026-02-01: 0</title></rect>
<rect x="245" y="173" width="11" height="11" rx="2" fill="#161b22"><title>2026-02-02: 0</title></rect>
<rect x="245" y="186" width="11" height="11" rx="2" fill="#161b22"><title>2026-02-03: 0</title></rect>
<rect x="245" y="199" width="11" height="11" rx="2" fill="#161b22"><title>2026-02-04: 0</title></rect>
<rect x="245" y="212" width="11" height="11" rx="2" fill="#161b22"><title>2026-02-05: 0</title></rect>
<rect x="245" y="225" width="11" height="11" rx="2" fill="#161b22"><title>2026-02-06: 0</title></rect>
<rect x="245" y="238" width="11" height="11" rx="2" fill="#161b22"><title>2026-02-07: 0</title></rect>
<rect x="258" y="160" width="11" height="11" rx="2" fill="#161b22"><title>2026-02-08: 0</title></rect>
<rect x="258" y="173" width="11" height="11" rx="2" fill="#161b22"><title>2026-02-09: 0</title></rect>
<rect x="258" y="186" width="11" height="11" rx="2" fill="#161b22"><title>2026-02-10: 0</title></rect>
<rect x="258" y="199" width="11" height="11" rx="2" fill="#161b22"><title>2026-02-11: 0</title></rect>
<rect x="258" y="212" width="11" height="11" rx="2" fill="#161b22"><title>2026-02-12: 0</title></rect>
<rect x="258" y="225" width="11" height="11" rx="2" fill="#161b22"><title>2026-02-13: 0</title></rect>
<rect x="258" y="238" width="11" height="11" rx="2" fill="#161b22"><title>2026-02-14: 0</title></rect>
<rect x="271" y="160" width="11" height="11" rx="2" fill="#161b22"><title>2026-02-15: 0</title></rect>
<rect x="271" y="173" width="11" height="11" rx="2" fill="#161b22"><title>2026-02-16: 0</title></rect>
<rect x="271" y="186" width="11" height="11" rx="2" fill="#161b22"><title>2026-02-17: 0</title></rect>
<rect x="271" y="199" width="11" height="11" rx="2" fill="#161b22"><title>2026-02-18: 0</title></rect>
<rect x="271" y="212" width="11" height="11" rx="2" fill="#161b22"><title>2026-02-19: 0</title></rect>
<rect x="271" y="225" width="11" height="11" rx="2" fill="#161b22"><title>2026-02-20: 0</title></rect>
<rect x="271" y="238" width="11" height="11" rx="2" fill="#161b22"><title>2026-02-21: 0</title></rect>
<rect x="284" y="160" width="11" height="11" rx="2" fill="#161b22"><title>2026-02-22: 0</title></rect>
<rect x="284" y="173" width="11" height="11" rx="2" fill="#161b22"><title>2026-02-23: 0</title></rect>
<rect x="284" y="186" width="11" height="11" rx="2" fill="#161b22"><title>2026-02-24: 0</title></rect>
<rect x="284" y="199" width="11" height="11" rx="2" fill="#161b22"><title>2026-02-25: 0</title></rect>
<rect x="284" y="212" width="11" height="11" rx="2" fill="#161b22"><title>2026-02-26: 0</title></rect>
<rect x="284" y="225" width="11" height="11" rx="2" fill="#161b22"><title>2026-02-27: 0</title></rect>
<rect x="284" y="238" width="11" height="11" rx="2" fill="#161b22"><title>2026-02-28: 0</title></rect>
<rect x="297" y="160" width="11" height="11" rx="2" fill="#161b22"><title>2026-03-01: 0</title></rect>
<rect x="297" y="173" width="11" height="11" rx="2" fill="#161b22"><title>2026-03-02: 0</title></rect>
<rect x="297" y="186" width="11" height="11" rx="2" fill="#161b22"><title>2026-03-03: 0</title></rect>
<rect x="297" y="199" width="11" height="11" rx="2" fill="#161b22"><title>2026-03-04: 0</title></rect>
<rect x="297" y="212" width="11" height="11" rx="2" fill="#161b22"><title>2026-03-05: 0</title></rect>
<rect x="297" y="225" width="11" height="11" rx="2" fill="#161b22"><title>2026-03-06: 0</title></rect>
<rect x="297" y="238" width="11" height="11" rx="2" fill="#161b22"><title>2026-03-07: 0</title></rect>
<rect x="310" y="160" width="11" height="11" rx="2" fill="#161b22"><title>2026-03-08: 0</title></rect>
<rect x="310" y="173" width="11" height="11" rx="2" fill="#161b22"><title>2026-03-09: 0</title></rect>
<rect x="310" y="186" width="11" height="11" rx="2" fill="#161b22"><title>2026-03-10: 0</title></rect>
<rect x="310" y="199" width="11" height="11" rx="2" fill="#161b22"><title>2026-03-11: 0</title></rect>
<rect x="310" y="212" width="11" height="11" rx="2" fill="#161b22"><title>2026-03-12: 0</title></rect>
<rect x="310" y="225" width="11" height="11" rx="2" fill="#161b22"><title>2026-03-13: 0</title></rect>
<rect x="310" y="238" width="11" height="11" rx="2" fill="#161b22"><title>2026-03-14: 0</title></rect>
<rect x="323" y="160" width="11" height="11" rx="2" fill="#161b22"><title>2026-03-15: 0</title></rect>
<rect x="323" y="173" width="11" height="11" rx="2" fill="#161b22"><title>2026-03-16: 0</title></rect>
<rect x="323" y="186" width="11" height="11" rx="2" fill="#161b22"><title>2026-03-17: 0</title></rect>
<rect x="323" y="199" width="11" height="11" rx="2" fill="#161b22"><title>2026-03-18: 0</title></rect>
<rect x="323" y="212" width="11" height="11" rx="2" fill="#161b22"><title>2026-03-19: 0</title></rect>
<rect x="323" y="225" width="11" height="11" rx="2" fill="#161b22"><title>2026-03-20: 0</title></rect>
<rect x="323" y="238" width="11" height="11" rx="2" fill="#161b22"><title>2026-03-21: 0</title></rect>
<rect x="336" y="160" width="11" height="11" rx="2" fill="#161b22"><title>2026-03-22: 0</title></rect>
<rect x="336" y="173" width="11" height="11" rx="2" fill="#161b22"><title>2026-03-23: 0</title></rect>
<rect x="336" y="186" width="11" height="11" rx="2" fill="#161b22"><title>2026-03-24: 0</title></rect>
<rect x="336" y="199" width="11" height="11" rx="2" fill="#161b22"><title>2026-03-25: 0</title></rect>
<rect x="336" y="212" width="11" height="11" rx="2" fill="#161b22"><title>2026-03-26: 0</title></rect>
<rect x="336" y="225" width="11" height="11" rx="2" fill="#161b22"><title>2026-03-27: 0</title></rect>
<rect x="336" y="238" width="11" height="11" rx="2" fill="#161b22"><title>2026-03-28: 0</title></rect>
<rect x="349" y="160" width="11" height="11" rx="2" fill="#161b22"><title>2026-03-29: 0</title></rect>
<rect x="349" y="173" width="11" height="11" rx="2" fill="#161b22"><title>2026-03-30: 0</title></rect>
<rect x="349" y="186" width="11" height="11" rx="2" fill="#161b22"><title>2026-03-31: 0</title></rect>
<rect x="349" y="199" width="11" height="11" rx="2" fill="#161b22"><title>2026-04-01: 0</title></rect>
<rect x="349" y="212" width="11" height="11" rx="2" fill="#161b22"><title>2026-04-02: 0</title></rect>
<rect x="349" y="225" width="11" height="11" rx="2" fill="#161b22"><title>2026-04-03: 0</title></rect>
<rect x="349" y="238" width="11" height="11" rx="2" fill="#161b22"><title>2026-04-04: 0</title></rect>
<rect x="362" y="160" width="11" height="11" rx="2" fill="#161b22"><title>2026-04-05: 0</title></rect>
<rect x="362" y="173" width="11" height="11" rx="2" fill="#161b22"><title>2026-04-06: 0</title></rect>
<rect x="362" y="186" width="11" height="11" rx="2" fill="#161b22"><title>2026-04-07: 0</title></rect>
<rect x="362" y="199" width="11" height="11" rx="2" fill="#161b22"><title>2026-04-08: 0</title></rect>
<rect x="362" y="212" width="11" height="11" rx="2" fill="#161b22"><title>2026-04-09: 0</title></rect>
<rect x="362" y="225" width="11" height="11" rx="2" fill="#161b22"><title>2026-04-10: 0</title></rect>
<rect x="362" y="238" width="11" height="11" rx="2" fill="#161b22"><title>2026-04-11: 0</title></rect>
<rect x="375" y="160" width="11" height="11" rx="2" fill="#39d353"><title>2026-04-12: 7</title></rect>
<rect x="375" y="173" width="11" height="11" rx="2" fill="#161b22"><title>2026-04-13: 0</title></rect>
<rect x="375" y="186" width="11" height="11" rx="2" fill="#161b22"><title>2026-04-14: 0</title></rect>
<rect x="375" y="199" width="11" height="11" rx="2" fill="#161b22"><title>2026-04-15: 0</title></rect>
<rect x="375" y="212" width="11" height="11" rx="2" fill="#161b22"><title>2026-04-16: 0</title></rect>


  <text x="420" y="152" fill="#e6edf3" font-size="12" font-weight="600" font-family="-apple-system, BlinkMacSystemFont, 'Segoe UI', Helvetica, Arial, sans-serif">Languages</text>
  
        <circle cx="420" cy="159" r="4" fill="#f1e05a" />
        <text x="432" y="162" fill="#e6edf3" font-size="11" font-family="-apple-system, BlinkMacSystemFont, 'Segoe UI', Helvetica, Arial, sans-serif">JavaScript</text>
        <text x="810" y="162" fill="#7d8590" font-size="10" text-anchor="end" font-family="-apple-system, BlinkMacSystemFont, 'Segoe UI', Helvetica, Arial, sans-serif">100%</text>
        <rect x="420" y="167" width="390" height="6" rx="3" fill="#30363d" />
        <rect x="420" y="167" width="390" height="6" rx="3" fill="#f1e05a" />

  <line x1="30" y1="275" x2="810" y2="275" stroke="#30363d" stroke-width="1" />
  <text x="420" y="296" fill="#7d8590" font-size="10" text-anchor="middle" font-family="-apple-system, BlinkMacSystemFont, 'Segoe UI', Helvetica, Arial, sans-serif">Generated with a custom GitHub Action</text>
</svg>