<svg xmlns="http://www.w3.org/2000/svg" width="840" height="520" viewBox="0 0 840 520" fill="none">
  <!-- Background -->
  <rect width="840" height="520" rx="12" fill="#0d1117" />
  <rect width="840" height="520" rx="12" fill="none" stroke="#30363d" stroke-width="1" />

  <!-- Header -->
  <text x="30" y="42" fill="#e6edf3" font-size="16" font-weight="600" font-family="-apple-system, BlinkMacSystemFont, 'Segoe UI', Helvetica, Arial, sans-serif">GitHub Activity</text>
  <text x="810" y="42" fill="#7d8590" font-size="11" text-anchor="end" font-family="-apple-system, BlinkMacSystemFont, 'Segoe UI', Helvetica, Arial, sans-serif">Updated Apr 12, 2026</text>
  <line x1="30" y1="55" x2="810" y2="55" stroke="#30363d" stroke-width="1" />

  <!-- Metrics -->
  
      <text x="105" y="90" fill="#58a6ff" font-size="28" font-weight="700" text-anchor="middle" font-family="-apple-system, BlinkMacSystemFont, 'Segoe UI', Helvetica, Arial, sans-serif">9</text>
      <text x="105" y="112" fill="#7d8590" font-size="12" text-anchor="middle" font-family="-apple-system, BlinkMacSystemFont, 'Segoe UI', Helvetica, Arial, sans-serif">Contributions</text>

      <text x="315" y="90" fill="#58a6ff" font-size="28" font-weight="700" text-anchor="middle" font-family="-apple-system, BlinkMacSystemFont, 'Segoe UI', Helvetica, Arial, sans-serif">8</text>
      <text x="315" y="112" fill="#7d8590" font-size="12" text-anchor="middle" font-family="-apple-system, BlinkMacSystemFont, 'Segoe UI', Helvetica, Arial, sans-serif">Commits</text>

      <text x="525" y="90" fill="#58a6ff" font-size="28" font-weight="700" text-anchor="middle" font-family="-apple-system, BlinkMacSystemFont, 'Segoe UI', Helvetica, Arial, sans-serif">1</text>
      <text x="525" y="112" fill="#7d8590" font-size="12" text-anchor="middle" font-family="-apple-system, BlinkMacSystemFont, 'Segoe UI', Helvetica, Arial, sans-serif">Repositories</text>

      <text x="735" y="90" fill="#58a6ff" font-size="28" font-weight="700" text-anchor="middle" font-family="-apple-system, BlinkMacSystemFont, 'Segoe UI', Helvetica, Arial, sans-serif">0</text>
      <text x="735" y="112" fill="#7d8590" font-size="12" text-anchor="middle" font-family="-apple-system, BlinkMacSystemFont, 'Segoe UI', Helvetica, Arial, sans-serif">Stars</text>

  <!-- Divider -->
  <line x1="30" y1="135" x2="810" y2="135" stroke="#30363d" stroke-width="1" />

  
  <!-- Heatmap Section -->
  <text x="30" y="170" fill="#e6edf3" font-size="13" font-weight="600" font-family="-apple-system, BlinkMacSystemFont, 'Segoe UI', Helvetica, Arial, sans-serif">Contribution Activity</text>
  <text x="30" y="188" fill="#7d8590" font-size="11" font-family="-apple-system, BlinkMacSystemFont, 'Segoe UI', Helvetica, Arial, sans-serif">Last 26 weeks</text>
  
<text x="40" y="228" fill="#7d8590" font-size="11" text-anchor="end" font-family="-apple-system, BlinkMacSystemFont, 'Segoe UI', Helvetica, Arial, sans-serif">Mon</text>

<text x="40" y="262" fill="#7d8590" font-size="11" text-anchor="end" font-family="-apple-system, BlinkMacSystemFont, 'Segoe UI', Helvetica, Arial, sans-serif">Wed</text>

<text x="40" y="296" fill="#7d8590" font-size="11" text-anchor="end" font-family="-apple-system, BlinkMacSystemFont, 'Segoe UI', Helvetica, Arial, sans-serif">Fri</text>

  <rect x="50" y="200" width="14" height="14" rx="3" fill="#161b22"><title>2025-10-19: 0 contributions</title></rect>
<rect x="50" y="217" width="14" height="14" rx="3" fill="#161b22"><title>2025-10-20: 0 contributions</title></rect>
<rect x="50" y="234" width="14" height="14" rx="3" fill="#161b22"><title>2025-10-21: 0 contributions</title></rect>
<rect x="50" y="251" width="14" height="14" rx="3" fill="#161b22"><title>2025-10-22: 0 contributions</title></rect>
<rect x="50" y="268" width="14" height="14" rx="3" fill="#161b22"><title>2025-10-23: 0 contributions</title></rect>
<rect x="50" y="285" width="14" height="14" rx="3" fill="#161b22"><title>2025-10-24: 0 contributions</title></rect>
<rect x="50" y="302" width="14" height="14" rx="3" fill="#161b22"><title>2025-10-25: 0 contributions</title></rect>
<rect x="67" y="200" width="14" height="14" rx="3" fill="#161b22"><title>2025-10-26: 0 contributions</title></rect>
<rect x="67" y="217" width="14" height="14" rx="3" fill="#161b22"><title>2025-10-27: 0 contributions</title></rect>
<rect x="67" y="234" width="14" height="14" rx="3" fill="#161b22"><title>2025-10-28: 0 contributions</title></rect>
<rect x="67" y="251" width="14" height="14" rx="3" fill="#161b22"><title>2025-10-29: 0 contributions</title></rect>
<rect x="67" y="268" width="14" height="14" rx="3" fill="#161b22"><title>2025-10-30: 0 contributions</title></rect>
<rect x="67" y="285" width="14" height="14" rx="3" fill="#161b22"><title>2025-10-31: 0 contributions</title></rect>
<rect x="67" y="302" width="14" height="14" rx="3" fill="#161b22"><title>2025-11-01: 0 contributions</title></rect>
<rect x="84" y="200" width="14" height="14" rx="3" fill="#161b22"><title>2025-11-02: 0 contributions</title></rect>
<rect x="84" y="217" width="14" height="14" rx="3" fill="#161b22"><title>2025-11-03: 0 contributions</title></rect>
<rect x="84" y="234" width="14" height="14" rx="3" fill="#161b22"><title>2025-11-04: 0 contributions</title></rect>
<rect x="84" y="251" width="14" height="14" rx="3" fill="#161b22"><title>2025-11-05: 0 contributions</title></rect>
<rect x="84" y="268" width="14" height="14" rx="3" fill="#161b22"><title>2025-11-06: 0 contributions</title></rect>
<rect x="84" y="285" width="14" height="14" rx="3" fill="#39d353"><title>2025-11-07: 5 contributions</title></rect>
<rect x="84" y="302" width="14" height="14" rx="3" fill="#161b22"><title>2025-11-08: 0 contributions</title></rect>
<rect x="101" y="200" width="14" height="14" rx="3" fill="#161b22"><title>2025-11-09: 0 contributions</title></rect>
<rect x="101" y="217" width="14" height="14" rx="3" fill="#161b22"><title>2025-11-10: 0 contributions</title></rect>
<rect x="101" y="234" width="14" height="14" rx="3" fill="#161b22"><title>2025-11-11: 0 contributions</title></rect>
<rect x="101" y="251" width="14" height="14" rx="3" fill="#161b22"><title>2025-11-12: 0 contributions</title></rect>
<rect x="101" y="268" width="14" height="14" rx="3" fill="#161b22"><title>2025-11-13: 0 contributions</title></rect>
<rect x="101" y="285" width="14" height="14" rx="3" fill="#161b22"><title>2025-11-14: 0 contributions</title></rect>
<rect x="101" y="302" width="14" height="14" rx="3" fill="#161b22"><title>2025-11-15: 0 contributions</title></rect>
<rect x="118" y="200" width="14" height="14" rx="3" fill="#161b22"><title>2025-11-16: 0 contributions</title></rect>
<rect x="118" y="217" width="14" height="14" rx="3" fill="#161b22"><title>2025-11-17: 0 contributions</title></rect>
<rect x="118" y="234" width="14" height="14" rx="3" fill="#161b22"><title>2025-11-18: 0 contributions</title></rect>
<rect x="118" y="251" width="14" height="14" rx="3" fill="#161b22"><title>2025-11-19: 0 contributions</title></rect>
<rect x="118" y="268" width="14" height="14" rx="3" fill="#161b22"><title>2025-11-20: 0 contributions</title></rect>
<rect x="118" y="285" width="14" height="14" rx="3" fill="#161b22"><title>2025-11-21: 0 contributions</title></rect>
<rect x="118" y="302" width="14" height="14" rx="3" fill="#161b22"><title>2025-11-22: 0 contributions</title></rect>
<rect x="135" y="200" width="14" height="14" rx="3" fill="#161b22"><title>2025-11-23: 0 contributions</title></rect>
<rect x="135" y="217" width="14" height="14" rx="3" fill="#161b22"><title>2025-11-24: 0 contributions</title></rect>
<rect x="135" y="234" width="14" height="14" rx="3" fill="#161b22"><title>2025-11-25: 0 contributions</title></rect>
<rect x="135" y="251" width="14" height="14" rx="3" fill="#161b22"><title>2025-11-26: 0 contributions</title></rect>
<rect x="135" y="268" width="14" height="14" rx="3" fill="#161b22"><title>2025-11-27: 0 contributions</title></rect>
<rect x="135" y="285" width="14" height="14" rx="3" fill="#161b22"><title>2025-11-28: 0 contributions</title></rect>
<rect x="135" y="302" width="14" height="14" rx="3" fill="#161b22"><title>2025-11-29: 0 contributions</title></rect>
<rect x="152" y="200" width="14" height="14" rx="3" fill="#161b22"><title>2025-11-30: 0 contributions</title></rect>
<rect x="152" y="217" width="14" height="14" rx="3" fill="#161b22"><title>2025-12-01: 0 contributions</title></rect>
<rect x="152" y="234" width="14" height="14" rx="3" fill="#161b22"><title>2025-12-02: 0 contributions</title></rect>
<rect x="152" y="251" width="14" height="14" rx="3" fill="#161b22"><title>2025-12-03: 0 contributions</title></rect>
<rect x="152" y="268" width="14" height="14" rx="3" fill="#161b22"><title>2025-12-04: 0 contributions</title></rect>
<rect x="152" y="285" width="14" height="14" rx="3" fill="#161b22"><title>2025-12-05: 0 contributions</title></rect>
<rect x="152" y="302" width="14" height="14" rx="3" fill="#161b22"><title>2025-12-06: 0 contributions</title></rect>
<rect x="169" y="200" width="14" height="14" rx="3" fill="#161b22"><title>2025-12-07: 0 contributions</title></rect>
<rect x="169" y="217" width="14" height="14" rx="3" fill="#161b22"><title>2025-12-08: 0 contributions</title></rect>
<rect x="169" y="234" width="14" height="14" rx="3" fill="#161b22"><title>2025-12-09: 0 contributions</title></rect>
<rect x="169" y="251" width="14" height="14" rx="3" fill="#161b22"><title>2025-12-10: 0 contributions</title></rect>
<rect x="169" y="268" width="14" height="14" rx="3" fill="#161b22"><title>2025-12-11: 0 contributions</title></rect>
<rect x="169" y="285" width="14" height="14" rx="3" fill="#161b22"><title>2025-12-12: 0 contributions</title></rect>
<rect x="169" y="302" width="14" height="14" rx="3" fill="#161b22"><title>2025-12-13: 0 contributions</title></rect>
<rect x="186" y="200" width="14" height="14" rx="3" fill="#161b22"><title>2025-12-14: 0 contributions</title></rect>
<rect x="186" y="217" width="14" height="14" rx="3" fill="#161b22"><title>2025-12-15: 0 contributions</title></rect>
<rect x="186" y="234" width="14" height="14" rx="3" fill="#161b22"><title>2025-12-16: 0 contributions</title></rect>
<rect x="186" y="251" width="14" height="14" rx="3" fill="#161b22"><title>2025-12-17: 0 contributions</title></rect>
<rect x="186" y="268" width="14" height="14" rx="3" fill="#161b22"><title>2025-12-18: 0 contributions</title></rect>
<rect x="186" y="285" width="14" height="14" rx="3" fill="#161b22"><title>2025-12-19: 0 contributions</title></rect>
<rect x="186" y="302" width="14" height="14" rx="3" fill="#161b22"><title>2025-12-20: 0 contributions</title></rect>
<rect x="203" y="200" width="14" height="14" rx="3" fill="#161b22"><title>2025-12-21: 0 contributions</title></rect>
<rect x="203" y="217" width="14" height="14" rx="3" fill="#161b22"><title>2025-12-22: 0 contributions</title></rect>
<rect x="203" y="234" width="14" height="14" rx="3" fill="#161b22"><title>2025-12-23: 0 contributions</title></rect>
<rect x="203" y="251" width="14" height="14" rx="3" fill="#161b22"><title>2025-12-24: 0 contributions</title></rect>
<rect x="203" y="268" width="14" height="14" rx="3" fill="#161b22"><title>2025-12-25: 0 contributions</title></rect>
<rect x="203" y="285" width="14" height="14" rx="3" fill="#161b22"><title>2025-12-26: 0 contributions</title></rect>
<rect x="203" y="302" width="14" height="14" rx="3" fill="#161b22"><title>2025-12-27: 0 contributions</title></rect>
<rect x="220" y="200" width="14" height="14" rx="3" fill="#161b22"><title>2025-12-28: 0 contributions</title></rect>
<rect x="220" y="217" width="14" height="14" rx="3" fill="#161b22"><title>2025-12-29: 0 contributions</title></rect>
<rect x="220" y="234" width="14" height="14" rx="3" fill="#161b22"><title>2025-12-30: 0 contributions</title></rect>
<rect x="220" y="251" width="14" height="14" rx="3" fill="#161b22"><title>2025-12-31: 0 contributions</title></rect>
<rect x="220" y="268" width="14" height="14" rx="3" fill="#161b22"><title>2026-01-01: 0 contributions</title></rect>
<rect x="220" y="285" width="14" height="14" rx="3" fill="#161b22"><title>2026-01-02: 0 contributions</title></rect>
<rect x="220" y="302" width="14" height="14" rx="3" fill="#161b22"><title>2026-01-03: 0 contributions</title></rect>
<rect x="237" y="200" width="14" height="14" rx="3" fill="#161b22"><title>2026-01-04: 0 contributions</title></rect>
<rect x="237" y="217" width="14" height="14" rx="3" fill="#161b22"><title>2026-01-05: 0 contributions</title></rect>
<rect x="237" y="234" width="14" height="14" rx="3" fill="#161b22"><title>2026-01-06: 0 contributions</title></rect>
<rect x="237" y="251" width="14" height="14" rx="3" fill="#161b22"><title>2026-01-07: 0 contributions</title></rect>
<rect x="237" y="268" width="14" height="14" rx="3" fill="#161b22"><title>2026-01-08: 0 contributions</title></rect>
<rect x="237" y="285" width="14" height="14" rx="3" fill="#161b22"><title>2026-01-09: 0 contributions</title></rect>
<rect x="237" y="302" width="14" height="14" rx="3" fill="#161b22"><title>2026-01-10: 0 contributions</title></rect>
<rect x="254" y="200" width="14" height="14" rx="3" fill="#161b22"><title>2026-01-11: 0 contributions</title></rect>
<rect x="254" y="217" width="14" height="14" rx="3" fill="#161b22"><title>2026-01-12: 0 contributions</title></rect>
<rect x="254" y="234" width="14" height="14" rx="3" fill="#161b22"><title>2026-01-13: 0 contributions</title></rect>
<rect x="254" y="251" width="14" height="14" rx="3" fill="#161b22"><title>2026-01-14: 0 contributions</title></rect>
<rect x="254" y="268" width="14" height="14" rx="3" fill="#161b22"><title>2026-01-15: 0 contributions</title></rect>
<rect x="254" y="285" width="14" height="14" rx="3" fill="#161b22"><title>2026-01-16: 0 contributions</title></rect>
<rect x="254" y="302" width="14" height="14" rx="3" fill="#161b22"><title>2026-01-17: 0 contributions</title></rect>
<rect x="271" y="200" width="14" height="14" rx="3" fill="#161b22"><title>2026-01-18: 0 contributions</title></rect>
<rect x="271" y="217" width="14" height="14" rx="3" fill="#161b22"><title>2026-01-19: 0 contributions</title></rect>
<rect x="271" y="234" width="14" height="14" rx="3" fill="#161b22"><title>2026-01-20: 0 contributions</title></rect>
<rect x="271" y="251" width="14" height="14" rx="3" fill="#161b22"><title>2026-01-21: 0 contributions</title></rect>
<rect x="271" y="268" width="14" height="14" rx="3" fill="#161b22"><title>2026-01-22: 0 contributions</title></rect>
<rect x="271" y="285" width="14" height="14" rx="3" fill="#161b22"><title>2026-01-23: 0 contributions</title></rect>
<rect x="271" y="302" width="14" height="14" rx="3" fill="#161b22"><title>2026-01-24: 0 contributions</title></rect>
<rect x="288" y="200" width="14" height="14" rx="3" fill="#161b22"><title>2026-01-25: 0 contributions</title></rect>
<rect x="288" y="217" width="14" height="14" rx="3" fill="#161b22"><title>2026-01-26: 0 contributions</title></rect>
<rect x="288" y="234" width="14" height="14" rx="3" fill="#161b22"><title>2026-01-27: 0 contributions</title></rect>
<rect x="288" y="251" width="14" height="14" rx="3" fill="#161b22"><title>2026-01-28: 0 contributions</title></rect>
<rect x="288" y="268" width="14" height="14" rx="3" fill="#161b22"><title>2026-01-29: 0 contributions</title></rect>
<rect x="288" y="285" width="14" height="14" rx="3" fill="#161b22"><title>2026-01-30: 0 contributions</title></rect>
<rect x="288" y="302" width="14" height="14" rx="3" fill="#161b22"><title>2026-01-31: 0 contributions</title></rect>
<rect x="305" y="200" width="14" height="14" rx="3" fill="#161b22"><title>2026-02-01: 0 contributions</title></rect>
<rect x="305" y="217" width="14" height="14" rx="3" fill="#161b22"><title>2026-02-02: 0 contributions</title></rect>
<rect x="305" y="234" width="14" height="14" rx="3" fill="#161b22"><title>2026-02-03: 0 contributions</title></rect>
<rect x="305" y="251" width="14" height="14" rx="3" fill="#161b22"><title>2026-02-04: 0 contributions</title></rect>
<rect x="305" y="268" width="14" height="14" rx="3" fill="#161b22"><title>2026-02-05: 0 contributions</title></rect>
<rect x="305" y="285" width="14" height="14" rx="3" fill="#161b22"><title>2026-02-06: 0 contributions</title></rect>
<rect x="305" y="302" width="14" height="14" rx="3" fill="#161b22"><title>2026-02-07: 0 contributions</title></rect>
<rect x="322" y="200" width="14" height="14" rx="3" fill="#161b22"><title>2026-02-08: 0 contributions</title></rect>
<rect x="322" y="217" width="14" height="14" rx="3" fill="#161b22"><title>2026-02-09: 0 contributions</title></rect>
<rect x="322" y="234" width="14" height="14" rx="3" fill="#161b22"><title>2026-02-10: 0 contributions</title></rect>
<rect x="322" y="251" width="14" height="14" rx="3" fill="#161b22"><title>2026-02-11: 0 contributions</title></rect>
<rect x="322" y="268" width="14" height="14" rx="3" fill="#161b22"><title>2026-02-12: 0 contributions</title></rect>
<rect x="322" y="285" width="14" height="14" rx="3" fill="#161b22"><title>2026-02-13: 0 contributions</title></rect>
<rect x="322" y="302" width="14" height="14" rx="3" fill="#161b22"><title>2026-02-14: 0 contributions</title></rect>
<rect x="339" y="200" width="14" height="14" rx="3" fill="#161b22"><title>2026-02-15: 0 contributions</title></rect>
<rect x="339" y="217" width="14" height="14" rx="3" fill="#161b22"><title>2026-02-16: 0 contributions</title></rect>
<rect x="339" y="234" width="14" height="14" rx="3" fill="#161b22"><title>2026-02-17: 0 contributions</title></rect>
<rect x="339" y="251" width="14" height="14" rx="3" fill="#161b22"><title>2026-02-18: 0 contributions</title></rect>
<rect x="339" y="268" width="14" height="14" rx="3" fill="#161b22"><title>2026-02-19: 0 contributions</title></rect>
<rect x="339" y="285" width="14" height="14" rx="3" fill="#161b22"><title>2026-02-20: 0 contributions</title></rect>
<rect x="339" y="302" width="14" height="14" rx="3" fill="#161b22"><title>2026-02-21: 0 contributions</title></rect>
<rect x="356" y="200" width="14" height="14" rx="3" fill="#161b22"><title>2026-02-22: 0 contributions</title></rect>
<rect x="356" y="217" width="14" height="14" rx="3" fill="#161b22"><title>2026-02-23: 0 contributions</title></rect>
<rect x="356" y="234" width="14" height="14" rx="3" fill="#161b22"><title>2026-02-24: 0 contributions</title></rect>
<rect x="356" y="251" width="14" height="14" rx="3" fill="#161b22"><title>2026-02-25: 0 contributions</title></rect>
<rect x="356" y="268" width="14" height="14" rx="3" fill="#161b22"><title>2026-02-26: 0 contributions</title></rect>
<rect x="356" y="285" width="14" height="14" rx="3" fill="#161b22"><title>2026-02-27: 0 contributions</title></rect>
<rect x="356" y="302" width="14" height="14" rx="3" fill="#161b22"><title>2026-02-28: 0 contributions</title></rect>
<rect x="373" y="200" width="14" height="14" rx="3" fill="#161b22"><title>2026-03-01: 0 contributions</title></rect>
<rect x="373" y="217" width="14" height="14" rx="3" fill="#161b22"><title>2026-03-02: 0 contributions</title></rect>
<rect x="373" y="234" width="14" height="14" rx="3" fill="#161b22"><title>2026-03-03: 0 contributions</title></rect>
<rect x="373" y="251" width="14" height="14" rx="3" fill="#161b22"><title>2026-03-04: 0 contributions</title></rect>
<rect x="373" y="268" width="14" height="14" rx="3" fill="#161b22"><title>2026-03-05: 0 contributions</title></rect>
<rect x="373" y="285" width="14" height="14" rx="3" fill="#161b22"><title>2026-03-06: 0 contributions</title></rect>
<rect x="373" y="302" width="14" height="14" rx="3" fill="#161b22"><title>2026-03-07: 0 contributions</title></rect>
<rect x="390" y="200" width="14" height="14" rx="3" fill="#161b22"><title>2026-03-08: 0 contributions</title></rect>
<rect x="390" y="217" width="14" height="14" rx="3" fill="#161b22"><title>2026-03-09: 0 contributions</title></rect>
<rect x="390" y="234" width="14" height="14" rx="3" fill="#161b22"><title>2026-03-10: 0 contributions</title></rect>
<rect x="390" y="251" width="14" height="14" rx="3" fill="#161b22"><title>2026-03-11: 0 contributions</title></rect>
<rect x="390" y="268" width="14" height="14" rx="3" fill="#161b22"><title>2026-03-12: 0 contributions</title></rect>
<rect x="390" y="285" width="14" height="14" rx="3" fill="#161b22"><title>2026-03-13: 0 contributions</title></rect>
<rect x="390" y="302" width="14" height="14" rx="3" fill="#161b22"><title>2026-03-14: 0 contributions</title></rect>
<rect x="407" y="200" width="14" height="14" rx="3" fill="#161b22"><title>2026-03-15: 0 contributions</title></rect>
<rect x="407" y="217" width="14" height="14" rx="3" fill="#161b22"><title>2026-03-16: 0 contributions</title></rect>
<rect x="407" y="234" width="14" height="14" rx="3" fill="#161b22"><title>2026-03-17: 0 contributions</title></rect>
<rect x="407" y="251" width="14" height="14" rx="3" fill="#161b22"><title>2026-03-18: 0 contributions</title></rect>
<rect x="407" y="268" width="14" height="14" rx="3" fill="#161b22"><title>2026-03-19: 0 contributions</title></rect>
<rect x="407" y="285" width="14" height="14" rx="3" fill="#161b22"><title>2026-03-20: 0 contributions</title></rect>
<rect x="407" y="302" width="14" height="14" rx="3" fill="#161b22"><title>2026-03-21: 0 contributions</title></rect>
<rect x="424" y="200" width="14" height="14" rx="3" fill="#161b22"><title>2026-03-22: 0 contributions</title></rect>
<rect x="424" y="217" width="14" height="14" rx="3" fill="#161b22"><title>2026-03-23: 0 contributions</title></rect>
<rect x="424" y="234" width="14" height="14" rx="3" fill="#161b22"><title>2026-03-24: 0 contributions</title></rect>
<rect x="424" y="251" width="14" height="14" rx="3" fill="#161b22"><title>2026-03-25: 0 contributions</title></rect>
<rect x="424" y="268" width="14" height="14" rx="3" fill="#161b22"><title>2026-03-26: 0 contributions</title></rect>
<rect x="424" y="285" width="14" height="14" rx="3" fill="#161b22"><title>2026-03-27: 0 contributions</title></rect>
<rect x="424" y="302" width="14" height="14" rx="3" fill="#161b22"><title>2026-03-28: 0 contributions</title></rect>
<rect x="441" y="200" width="14" height="14" rx="3" fill="#161b22"><title>2026-03-29: 0 contributions</title></rect>
<rect x="441" y="217" width="14" height="14" rx="3" fill="#161b22"><title>2026-03-30: 0 contributions</title></rect>
<rect x="441" y="234" width="14" height="14" rx="3" fill="#161b22"><title>2026-03-31: 0 contributions</title></rect>
<rect x="441" y="251" width="14" height="14" rx="3" fill="#161b22"><title>2026-04-01: 0 contributions</title></rect>
<rect x="441" y="268" width="14" height="14" rx="3" fill="#161b22"><title>2026-04-02: 0 contributions</title></rect>
<rect x="441" y="285" width="14" height="14" rx="3" fill="#161b22"><title>2026-04-03: 0 contributions</title></rect>
<rect x="441" y="302" width="14" height="14" rx="3" fill="#161b22"><title>2026-04-04: 0 contributions</title></rect>
<rect x="458" y="200" width="14" height="14" rx="3" fill="#161b22"><title>2026-04-05: 0 contributions</title></rect>
<rect x="458" y="217" width="14" height="14" rx="3" fill="#161b22"><title>2026-04-06: 0 contributions</title></rect>
<rect x="458" y="234" width="14" height="14" rx="3" fill="#161b22"><title>2026-04-07: 0 contributions</title></rect>
<rect x="458" y="251" width="14" height="14" rx="3" fill="#161b22"><title>2026-04-08: 0 contributions</title></rect>
<rect x="458" y="268" width="14" height="14" rx="3" fill="#161b22"><title>2026-04-09: 0 contributions</title></rect>
<rect x="458" y="285" width="14" height="14" rx="3" fill="#161b22"><title>2026-04-10: 0 contributions</title></rect>
<rect x="458" y="302" width="14" height="14" rx="3" fill="#161b22"><title>2026-04-11: 0 contributions</title></rect>
<rect x="475" y="200" width="14" height="14" rx="3" fill="#39d353"><title>2026-04-12: 4 contributions</title></rect>

  <text x="50" y="339" fill="#7d8590" font-size="10" font-family="-apple-system, BlinkMacSystemFont, 'Segoe UI', Helvetica, Arial, sans-serif">Less</text>
  <rect x="80" y="329" width="12" height="12" rx="2" fill="#161b22" />
  <rect x="98" y="329" width="12" height="12" rx="2" fill="#0e4429" />
  <rect x="116" y="329" width="12" height="12" rx="2" fill="#006d32" />
  <rect x="134" y="329" width="12" height="12" rx="2" fill="#26a641" />
  <rect x="152" y="329" width="12" height="12" rx="2" fill="#39d353" />
  <text x="174" y="339" fill="#7d8590" font-size="10" font-family="-apple-system, BlinkMacSystemFont, 'Segoe UI', Helvetica, Arial, sans-serif">More</text>

  <!-- Languages Section -->
  <text x="510" y="170" fill="#e6edf3" font-size="13" font-weight="600" font-family="-apple-system, BlinkMacSystemFont, 'Segoe UI', Helvetica, Arial, sans-serif">Top Languages</text>
  <text x="510" y="188" fill="#7d8590" font-size="11" font-family="-apple-system, BlinkMacSystemFont, 'Segoe UI', Helvetica, Arial, sans-serif">By repository size</text>
  
      <text x="510" y="196" fill="#e6edf3" font-size="12" font-family="-apple-system, BlinkMacSystemFont, 'Segoe UI', Helvetica, Arial, sans-serif">JavaScript</text>
      <text x="790" y="196" fill="#7d8590" font-size="11" text-anchor="end" font-family="-apple-system, BlinkMacSystemFont, 'Segoe UI', Helvetica, Arial, sans-serif">100%</text>
      <rect x="510" y="202" width="280" height="10" rx="5" fill="#30363d" />
      <rect x="510" y="202" width="280" height="10" rx="5" fill="#f1e05a" />

  <!-- Weekly Activity Section -->
  <text x="510" y="360" fill="#e6edf3" font-size="13" font-weight="600" font-family="-apple-system, BlinkMacSystemFont, 'Segoe UI', Helvetica, Arial, sans-serif">Weekly Pattern</text>
  <text x="510" y="375" fill="#7d8590" font-size="11" font-family="-apple-system, BlinkMacSystemFont, 'Segoe UI', Helvetica, Arial, sans-serif">Commits by day of week</text>
  
      <rect x="510" y="390" width="28" height="40" rx="4" fill="#58a6ff" opacity="0.8" />
      <text x="524" y="446" fill="#7d8590" font-size="10" text-anchor="middle" font-family="-apple-system, BlinkMacSystemFont, 'Segoe UI', Helvetica, Arial, sans-serif">Sun</text>

      <rect x="551" y="428" width="28" height="2" rx="4" fill="#30363d" opacity="0.3" />
      <text x="565" y="446" fill="#7d8590" font-size="10" text-anchor="middle" font-family="-apple-system, BlinkMacSystemFont, 'Segoe UI', Helvetica, Arial, sans-serif">Mon</text>

      <rect x="592" y="428" width="28" height="2" rx="4" fill="#30363d" opacity="0.3" />
      <text x="606" y="446" fill="#7d8590" font-size="10" text-anchor="middle" font-family="-apple-system, BlinkMacSystemFont, 'Segoe UI', Helvetica, Arial, sans-serif">Tue</text>

      <rect x="633" y="428" width="28" height="2" rx="4" fill="#30363d" opacity="0.3" />
      <text x="647" y="446" fill="#7d8590" font-size="10" text-anchor="middle" font-family="-apple-system, BlinkMacSystemFont, 'Segoe UI', Helvetica, Arial, sans-serif">Wed</text>

      <rect x="674" y="428" width="28" height="2" rx="4" fill="#30363d" opacity="0.3" />
      <text x="688" y="446" fill="#7d8590" font-size="10" text-anchor="middle" font-family="-apple-system, BlinkMacSystemFont, 'Segoe UI', Helvetica, Arial, sans-serif">Thu</text>

      <rect x="715" y="380" width="28" height="50" rx="4" fill="#58a6ff" opacity="1" />
      <text x="729" y="446" fill="#7d8590" font-size="10" text-anchor="middle" font-family="-apple-system, BlinkMacSystemFont, 'Segoe UI', Helvetica, Arial, sans-serif">Fri</text>

      <rect x="756" y="428" width="28" height="2" rx="4" fill="#30363d" opacity="0.3" />
      <text x="770" y="446" fill="#7d8590" font-size="10" text-anchor="middle" font-family="-apple-system, BlinkMacSystemFont, 'Segoe UI', Helvetica, Arial, sans-serif">Sat</text>

  <!-- Footer -->
  <line x1="30" y1="485" x2="810" y2="485" stroke="#30363d" stroke-width="1" />
  <text x="420" y="506" fill="#7d8590" font-size="10" text-anchor="middle" font-family="-apple-system, BlinkMacSystemFont, 'Segoe UI', Helvetica, Arial, sans-serif">Generated with a custom GitHub Action</text>
</svg>