<svg xmlns="http://www.w3.org/2000/svg" width="840" height="620" viewBox="0 0 840 620" fill="none">
  <rect width="840" height="620" rx="12" fill="#0d1117" />
  <rect width="840" height="620" rx="12" fill="none" stroke="#30363d" stroke-width="1" />

  <text x="30" y="42" fill="#e6edf3" font-size="16" font-weight="600" font-family="-apple-system, BlinkMacSystemFont, 'Segoe UI', Helvetica, Arial, sans-serif">GitHub Activity</text>
  <text x="810" y="32" fill="#7d8590" font-size="11" text-anchor="end" font-family="-apple-system, BlinkMacSystemFont, 'Segoe UI', Helvetica, Arial, sans-serif">Member since 2022</text>
  <text x="810" y="48" fill="#7d8590" font-size="10" text-anchor="end" font-family="-apple-system, BlinkMacSystemFont, 'Segoe UI', Helvetica, Arial, sans-serif">Updated May 3, 2026</text>
  <line x1="30" y1="55" x2="810" y2="55" stroke="#30363d" stroke-width="1" />

  
      <text x="105" y="88" fill="#58a6ff" font-size="28" font-weight="700" text-anchor="middle" font-family="-apple-system, BlinkMacSystemFont, 'Segoe UI', Helvetica, Arial, sans-serif">2,087</text>
      <text x="105" y="108" fill="#7d8590" font-size="11" text-anchor="middle" font-family="-apple-system, BlinkMacSystemFont, 'Segoe UI', Helvetica, Arial, sans-serif">Contributions</text>

      <text x="315" y="88" fill="#58a6ff" font-size="28" font-weight="700" text-anchor="middle" font-family="-apple-system, BlinkMacSystemFont, 'Segoe UI', Helvetica, Arial, sans-serif">2,056</text>
      <text x="315" y="108" fill="#7d8590" font-size="11" text-anchor="middle" font-family="-apple-system, BlinkMacSystemFont, 'Segoe UI', Helvetica, Arial, sans-serif">Commits</text>

      <text x="525" y="88" fill="#58a6ff" font-size="28" font-weight="700" text-anchor="middle" font-family="-apple-system, BlinkMacSystemFont, 'Segoe UI', Helvetica, Arial, sans-serif">1</text>
      <text x="525" y="108" fill="#7d8590" font-size="11" text-anchor="middle" font-family="-apple-system, BlinkMacSystemFont, 'Segoe UI', Helvetica, Arial, sans-serif">Repositories</text>

      <text x="735" y="88" fill="#58a6ff" font-size="28" font-weight="700" text-anchor="middle" font-family="-apple-system, BlinkMacSystemFont, 'Segoe UI', Helvetica, Arial, sans-serif">0</text>
      <text x="735" y="108" fill="#7d8590" font-size="11" text-anchor="middle" font-family="-apple-system, BlinkMacSystemFont, 'Segoe UI', Helvetica, Arial, sans-serif">Stars</text>

  <line x1="30" y1="130" x2="810" y2="130" stroke="#30363d" stroke-width="1" />

  <text x="30" y="170" fill="#e6edf3" font-size="13" font-weight="600" font-family="-apple-system, BlinkMacSystemFont, 'Segoe UI', Helvetica, Arial, sans-serif">Contribution Activity</text>
  <text x="30" y="188" fill="#7d8590" font-size="11" font-family="-apple-system, BlinkMacSystemFont, 'Segoe UI', Helvetica, Arial, sans-serif">Last 26 weeks</text>
  <text x="50" y="212" fill="#7d8590" font-size="10" font-family="-apple-system, BlinkMacSystemFont, 'Segoe UI', Helvetica, Arial, sans-serif">Nov</text>
  <text x="101" y="212" fill="#7d8590" font-size="10" font-family="-apple-system, BlinkMacSystemFont, 'Segoe UI', Helvetica, Arial, sans-serif">Dec</text>
  <text x="169" y="212" fill="#7d8590" font-size="10" font-family="-apple-system, BlinkMacSystemFont, 'Segoe UI', Helvetica, Arial, sans-serif">Jan</text>
  <text x="254" y="212" fill="#7d8590" font-size="10" font-family="-apple-system, BlinkMacSystemFont, 'Segoe UI', Helvetica, Arial, sans-serif">Feb</text>
  <text x="322" y="212" fill="#7d8590" font-size="10" font-family="-apple-system, BlinkMacSystemFont, 'Segoe UI', Helvetica, Arial, sans-serif">Mar</text>
  <text x="407" y="212" fill="#7d8590" font-size="10" font-family="-apple-system, BlinkMacSystemFont, 'Segoe UI', Helvetica, Arial, sans-serif">Apr</text>
  
<text x="40" y="248" fill="#7d8590" font-size="11" text-anchor="end" font-family="-apple-system, BlinkMacSystemFont, 'Segoe UI', Helvetica, Arial, sans-serif">Mon</text>

<text x="40" y="282" fill="#7d8590" font-size="11" text-anchor="end" font-family="-apple-system, BlinkMacSystemFont, 'Segoe UI', Helvetica, Arial, sans-serif">Wed</text>

<text x="40" y="316" fill="#7d8590" font-size="11" text-anchor="end" font-family="-apple-system, BlinkMacSystemFont, 'Segoe UI', Helvetica, Arial, sans-serif">Fri</text>

  <rect x="50" y="220" width="14" height="14" rx="3" fill="#161b22"><title>2025-11-16: 0</title></rect>
<rect x="50" y="237" width="14" height="14" rx="3" fill="#26a641"><title>2025-11-17: 75</title></rect>
<rect x="50" y="254" width="14" height="14" rx="3" fill="#161b22"><title>2025-11-18: 0</title></rect>
<rect x="50" y="271" width="14" height="14" rx="3" fill="#0e4429"><title>2025-11-19: 1</title></rect>
<rect x="50" y="288" width="14" height="14" rx="3" fill="#161b22"><title>2025-11-20: 0</title></rect>
<rect x="50" y="305" width="14" height="14" rx="3" fill="#161b22"><title>2025-11-21: 0</title></rect>
<rect x="50" y="322" width="14" height="14" rx="3" fill="#161b22"><title>2025-11-22: 0</title></rect>
<rect x="67" y="220" width="14" height="14" rx="3" fill="#161b22"><title>2025-11-23: 0</title></rect>
<rect x="67" y="237" width="14" height="14" rx="3" fill="#0e4429"><title>2025-11-24: 1</title></rect>
<rect x="67" y="254" width="14" height="14" rx="3" fill="#161b22"><title>2025-11-25: 0</title></rect>
<rect x="67" y="271" width="14" height="14" rx="3" fill="#006d32"><title>2025-11-26: 46</title></rect>
<rect x="67" y="288" width="14" height="14" rx="3" fill="#161b22"><title>2025-11-27: 0</title></rect>
<rect x="67" y="305" width="14" height="14" rx="3" fill="#161b22"><title>2025-11-28: 0</title></rect>
<rect x="67" y="322" width="14" height="14" rx="3" fill="#161b22"><title>2025-11-29: 0</title></rect>
<rect x="84" y="220" width="14" height="14" rx="3" fill="#161b22"><title>2025-11-30: 0</title></rect>
<rect x="84" y="237" width="14" height="14" rx="3" fill="#0e4429"><title>2025-12-01: 14</title></rect>
<rect x="84" y="254" width="14" height="14" rx="3" fill="#006d32"><title>2025-12-02: 46</title></rect>
<rect x="84" y="271" width="14" height="14" rx="3" fill="#0e4429"><title>2025-12-03: 3</title></rect>
<rect x="84" y="288" width="14" height="14" rx="3" fill="#0e4429"><title>2025-12-04: 7</title></rect>
<rect x="84" y="305" width="14" height="14" rx="3" fill="#161b22"><title>2025-12-05: 0</title></rect>
<rect x="84" y="322" width="14" height="14" rx="3" fill="#161b22"><title>2025-12-06: 0</title></rect>
<rect x="101" y="220" width="14" height="14" rx="3" fill="#161b22"><title>2025-12-07: 0</title></rect>
<rect x="101" y="237" width="14" height="14" rx="3" fill="#0e4429"><title>2025-12-08: 3</title></rect>
<rect x="101" y="254" width="14" height="14" rx="3" fill="#161b22"><title>2025-12-09: 0</title></rect>
<rect x="101" y="271" width="14" height="14" rx="3" fill="#161b22"><title>2025-12-10: 0</title></rect>
<rect x="101" y="288" width="14" height="14" rx="3" fill="#0e4429"><title>2025-12-11: 7</title></rect>
<rect x="101" y="305" width="14" height="14" rx="3" fill="#0e4429"><title>2025-12-12: 4</title></rect>
<rect x="101" y="322" width="14" height="14" rx="3" fill="#161b22"><title>2025-12-13: 0</title></rect>
<rect x="118" y="220" width="14" height="14" rx="3" fill="#161b22"><title>2025-12-14: 0</title></rect>
<rect x="118" y="237" width="14" height="14" rx="3" fill="#0e4429"><title>2025-12-15: 1</title></rect>
<rect x="118" y="254" width="14" height="14" rx="3" fill="#0e4429"><title>2025-12-16: 23</title></rect>
<rect x="118" y="271" width="14" height="14" rx="3" fill="#0e4429"><title>2025-12-17: 1</title></rect>
<rect x="118" y="288" width="14" height="14" rx="3" fill="#0e4429"><title>2025-12-18: 1</title></rect>
<rect x="118" y="305" width="14" height="14" rx="3" fill="#0e4429"><title>2025-12-19: 2</title></rect>
<rect x="118" y="322" width="14" height="14" rx="3" fill="#161b22"><title>2025-12-20: 0</title></rect>
<rect x="135" y="220" width="14" height="14" rx="3" fill="#161b22"><title>2025-12-21: 0</title></rect>
<rect x="135" y="237" width="14" height="14" rx="3" fill="#0e4429"><title>2025-12-22: 1</title></rect>
<rect x="135" y="254" width="14" height="14" rx="3" fill="#161b22"><title>2025-12-23: 0</title></rect>
<rect x="135" y="271" width="14" height="14" rx="3" fill="#161b22"><title>2025-12-24: 0</title></rect>
<rect x="135" y="288" width="14" height="14" rx="3" fill="#161b22"><title>2025-12-25: 0</title></rect>
<rect x="135" y="305" width="14" height="14" rx="3" fill="#161b22"><title>2025-12-26: 0</title></rect>
<rect x="135" y="322" width="14" height="14" rx="3" fill="#161b22"><title>2025-12-27: 0</title></rect>
<rect x="152" y="220" width="14" height="14" rx="3" fill="#161b22"><title>2025-12-28: 0</title></rect>
<rect x="152" y="237" width="14" height="14" rx="3" fill="#0e4429"><title>2025-12-29: 4</title></rect>
<rect x="152" y="254" width="14" height="14" rx="3" fill="#0e4429"><title>2025-12-30: 5</title></rect>
<rect x="152" y="271" width="14" height="14" rx="3" fill="#0e4429"><title>2025-12-31: 1</title></rect>
<rect x="152" y="288" width="14" height="14" rx="3" fill="#161b22"><title>2026-01-01: 0</title></rect>
<rect x="169" y="288" width="14" height="14" rx="3" fill="#161b22"><title>2026-01-01: 0</title></rect>
<rect x="169" y="305" width="14" height="14" rx="3" fill="#161b22"><title>2026-01-02: 0</title></rect>
<rect x="169" y="322" width="14" height="14" rx="3" fill="#161b22"><title>2026-01-03: 0</title></rect>
<rect x="186" y="220" width="14" height="14" rx="3" fill="#161b22"><title>2026-01-04: 0</title></rect>
<rect x="186" y="237" width="14" height="14" rx="3" fill="#0e4429"><title>2026-01-05: 1</title></rect>
<rect x="186" y="254" width="14" height="14" rx="3" fill="#161b22"><title>2026-01-06: 0</title></rect>
<rect x="186" y="271" width="14" height="14" rx="3" fill="#0e4429"><title>2026-01-07: 3</title></rect>
<rect x="186" y="288" width="14" height="14" rx="3" fill="#0e4429"><title>2026-01-08: 8</title></rect>
<rect x="186" y="305" width="14" height="14" rx="3" fill="#0e4429"><title>2026-01-09: 7</title></rect>
<rect x="186" y="322" width="14" height="14" rx="3" fill="#161b22"><title>2026-01-10: 0</title></rect>
<rect x="203" y="220" width="14" height="14" rx="3" fill="#161b22"><title>2026-01-11: 0</title></rect>
<rect x="203" y="237" width="14" height="14" rx="3" fill="#0e4429"><title>2026-01-12: 1</title></rect>
<rect x="203" y="254" width="14" height="14" rx="3" fill="#0e4429"><title>2026-01-13: 1</title></rect>
<rect x="203" y="271" width="14" height="14" rx="3" fill="#0e4429"><title>2026-01-14: 1</title></rect>
<rect x="203" y="288" width="14" height="14" rx="3" fill="#0e4429"><title>2026-01-15: 6</title></rect>
<rect x="203" y="305" width="14" height="14" rx="3" fill="#0e4429"><title>2026-01-16: 5</title></rect>
<rect x="203" y="322" width="14" height="14" rx="3" fill="#161b22"><title>2026-01-17: 0</title></rect>
<rect x="220" y="220" width="14" height="14" rx="3" fill="#161b22"><title>2026-01-18: 0</title></rect>
<rect x="220" y="237" width="14" height="14" rx="3" fill="#0e4429"><title>2026-01-19: 4</title></rect>
<rect x="220" y="254" width="14" height="14" rx="3" fill="#161b22"><title>2026-01-20: 0</title></rect>
<rect x="220" y="271" width="14" height="14" rx="3" fill="#0e4429"><title>2026-01-21: 3</title></rect>
<rect x="220" y="288" width="14" height="14" rx="3" fill="#161b22"><title>2026-01-22: 0</title></rect>
<rect x="220" y="305" width="14" height="14" rx="3" fill="#161b22"><title>2026-01-23: 0</title></rect>
<rect x="220" y="322" width="14" height="14" rx="3" fill="#161b22"><title>2026-01-24: 0</title></rect>
<rect x="237" y="220" width="14" height="14" rx="3" fill="#161b22"><title>2026-01-25: 0</title></rect>
<rect x="237" y="237" width="14" height="14" rx="3" fill="#0e4429"><title>2026-01-26: 3</title></rect>
<rect x="237" y="254" width="14" height="14" rx="3" fill="#0e4429"><title>2026-01-27: 5</title></rect>
<rect x="237" y="271" width="14" height="14" rx="3" fill="#161b22"><title>2026-01-28: 0</title></rect>
<rect x="237" y="288" width="14" height="14" rx="3" fill="#161b22"><title>2026-01-29: 0</title></rect>
<rect x="237" y="305" width="14" height="14" rx="3" fill="#0e4429"><title>2026-01-30: 6</title></rect>
<rect x="237" y="322" width="14" height="14" rx="3" fill="#0e4429"><title>2026-01-31: 5</title></rect>
<rect x="254" y="220" width="14" height="14" rx="3" fill="#0e4429"><title>2026-02-01: 1</title></rect>
<rect x="254" y="237" width="14" height="14" rx="3" fill="#0e4429"><title>2026-02-02: 2</title></rect>
<rect x="254" y="254" width="14" height="14" rx="3" fill="#161b22"><title>2026-02-03: 0</title></rect>
<rect x="254" y="271" width="14" height="14" rx="3" fill="#0e4429"><title>2026-02-04: 2</title></rect>
<rect x="254" y="288" width="14" height="14" rx="3" fill="#0e4429"><title>2026-02-05: 1</title></rect>
<rect x="254" y="305" width="14" height="14" rx="3" fill="#0e4429"><title>2026-02-06: 1</title></rect>
<rect x="254" y="322" width="14" height="14" rx="3" fill="#161b22"><title>2026-02-07: 0</title></rect>
<rect x="271" y="220" width="14" height="14" rx="3" fill="#161b22"><title>2026-02-08: 0</title></rect>
<rect x="271" y="237" width="14" height="14" rx="3" fill="#0e4429"><title>2026-02-09: 1</title></rect>
<rect x="271" y="254" width="14" height="14" rx="3" fill="#161b22"><title>2026-02-10: 0</title></rect>
<rect x="271" y="271" width="14" height="14" rx="3" fill="#161b22"><title>2026-02-11: 0</title></rect>
<rect x="271" y="288" width="14" height="14" rx="3" fill="#161b22"><title>2026-02-12: 0</title></rect>
<rect x="271" y="305" width="14" height="14" rx="3" fill="#161b22"><title>2026-02-13: 0</title></rect>
<rect x="271" y="322" width="14" height="14" rx="3" fill="#161b22"><title>2026-02-14: 0</title></rect>
<rect x="288" y="220" width="14" height="14" rx="3" fill="#161b22"><title>2026-02-15: 0</title></rect>
<rect x="288" y="237" width="14" height="14" rx="3" fill="#161b22"><title>2026-02-16: 0</title></rect>
<rect x="288" y="254" width="14" height="14" rx="3" fill="#161b22"><title>2026-02-17: 0</title></rect>
<rect x="288" y="271" width="14" height="14" rx="3" fill="#161b22"><title>2026-02-18: 0</title></rect>
<rect x="288" y="288" width="14" height="14" rx="3" fill="#0e4429"><title>2026-02-19: 3</title></rect>
<rect x="288" y="305" width="14" height="14" rx="3" fill="#0e4429"><title>2026-02-20: 10</title></rect>
<rect x="288" y="322" width="14" height="14" rx="3" fill="#161b22"><title>2026-02-21: 0</title></rect>
<rect x="305" y="220" width="14" height="14" rx="3" fill="#161b22"><title>2026-02-22: 0</title></rect>
<rect x="305" y="237" width="14" height="14" rx="3" fill="#0e4429"><title>2026-02-23: 1</title></rect>
<rect x="305" y="254" width="14" height="14" rx="3" fill="#0e4429"><title>2026-02-24: 5</title></rect>
<rect x="305" y="271" width="14" height="14" rx="3" fill="#0e4429"><title>2026-02-25: 8</title></rect>
<rect x="305" y="288" width="14" height="14" rx="3" fill="#0e4429"><title>2026-02-26: 9</title></rect>
<rect x="305" y="305" width="14" height="14" rx="3" fill="#161b22"><title>2026-02-27: 0</title></rect>
<rect x="305" y="322" width="14" height="14" rx="3" fill="#161b22"><title>2026-02-28: 0</title></rect>
<rect x="322" y="220" width="14" height="14" rx="3" fill="#161b22"><title>2026-03-01: 0</title></rect>
<rect x="322" y="237" width="14" height="14" rx="3" fill="#161b22"><title>2026-03-02: 0</title></rect>
<rect x="322" y="254" width="14" height="14" rx="3" fill="#0e4429"><title>2026-03-03: 10</title></rect>
<rect x="322" y="271" width="14" height="14" rx="3" fill="#161b22"><title>2026-03-04: 0</title></rect>
<rect x="322" y="288" width="14" height="14" rx="3" fill="#161b22"><title>2026-03-05: 0</title></rect>
<rect x="322" y="305" width="14" height="14" rx="3" fill="#161b22"><title>2026-03-06: 0</title></rect>
<rect x="322" y="322" width="14" height="14" rx="3" fill="#161b22"><title>2026-03-07: 0</title></rect>
<rect x="339" y="220" width="14" height="14" rx="3" fill="#161b22"><title>2026-03-08: 0</title></rect>
<rect x="339" y="237" width="14" height="14" rx="3" fill="#0e4429"><title>2026-03-09: 3</title></rect>
<rect x="339" y="254" width="14" height="14" rx="3" fill="#0e4429"><title>2026-03-10: 2</title></rect>
<rect x="339" y="271" width="14" height="14" rx="3" fill="#0e4429"><title>2026-03-11: 12</title></rect>
<rect x="339" y="288" width="14" height="14" rx="3" fill="#0e4429"><title>2026-03-12: 5</title></rect>
<rect x="339" y="305" width="14" height="14" rx="3" fill="#0e4429"><title>2026-03-13: 3</title></rect>
<rect x="339" y="322" width="14" height="14" rx="3" fill="#0e4429"><title>2026-03-14: 2</title></rect>
<rect x="356" y="220" width="14" height="14" rx="3" fill="#0e4429"><title>2026-03-15: 5</title></rect>
<rect x="356" y="237" width="14" height="14" rx="3" fill="#0e4429"><title>2026-03-16: 9</title></rect>
<rect x="356" y="254" width="14" height="14" rx="3" fill="#0e4429"><title>2026-03-17: 4</title></rect>
<rect x="356" y="271" width="14" height="14" rx="3" fill="#0e4429"><title>2026-03-18: 2</title></rect>
<rect x="356" y="288" width="14" height="14" rx="3" fill="#0e4429"><title>2026-03-19: 2</title></rect>
<rect x="356" y="305" width="14" height="14" rx="3" fill="#0e4429"><title>2026-03-20: 14</title></rect>
<rect x="356" y="322" width="14" height="14" rx="3" fill="#0e4429"><title>2026-03-21: 16</title></rect>
<rect x="373" y="220" width="14" height="14" rx="3" fill="#006d32"><title>2026-03-22: 44</title></rect>
<rect x="373" y="237" width="14" height="14" rx="3" fill="#006d32"><title>2026-03-23: 36</title></rect>
<rect x="373" y="254" width="14" height="14" rx="3" fill="#0e4429"><title>2026-03-24: 6</title></rect>
<rect x="373" y="271" width="14" height="14" rx="3" fill="#0e4429"><title>2026-03-25: 8</title></rect>
<rect x="373" y="288" width="14" height="14" rx="3" fill="#0e4429"><title>2026-03-26: 17</title></rect>
<rect x="373" y="305" width="14" height="14" rx="3" fill="#0e4429"><title>2026-03-27: 19</title></rect>
<rect x="373" y="322" width="14" height="14" rx="3" fill="#161b22"><title>2026-03-28: 0</title></rect>
<rect x="390" y="220" width="14" height="14" rx="3" fill="#0e4429"><title>2026-03-29: 6</title></rect>
<rect x="390" y="237" width="14" height="14" rx="3" fill="#0e4429"><title>2026-03-30: 4</title></rect>
<rect x="390" y="254" width="14" height="14" rx="3" fill="#0e4429"><title>2026-03-31: 12</title></rect>
<rect x="390" y="271" width="14" height="14" rx="3" fill="#0e4429"><title>2026-04-01: 21</title></rect>
<rect x="390" y="288" width="14" height="14" rx="3" fill="#0e4429"><title>2026-04-02: 16</title></rect>
<rect x="390" y="305" width="14" height="14" rx="3" fill="#161b22"><title>2026-04-03: 0</title></rect>
<rect x="390" y="322" width="14" height="14" rx="3" fill="#161b22"><title>2026-04-04: 0</title></rect>
<rect x="407" y="220" width="14" height="14" rx="3" fill="#161b22"><title>2026-04-05: 0</title></rect>
<rect x="407" y="237" width="14" height="14" rx="3" fill="#161b22"><title>2026-04-06: 0</title></rect>
<rect x="407" y="254" width="14" height="14" rx="3" fill="#0e4429"><title>2026-04-07: 10</title></rect>
<rect x="407" y="271" width="14" height="14" rx="3" fill="#0e4429"><title>2026-04-08: 1</title></rect>
<rect x="407" y="288" width="14" height="14" rx="3" fill="#161b22"><title>2026-04-09: 0</title></rect>
<rect x="407" y="305" width="14" height="14" rx="3" fill="#0e4429"><title>2026-04-10: 25</title></rect>
<rect x="407" y="322" width="14" height="14" rx="3" fill="#0e4429"><title>2026-04-11: 25</title></rect>
<rect x="424" y="220" width="14" height="14" rx="3" fill="#0e4429"><title>2026-04-12: 7</title></rect>
<rect x="424" y="237" width="14" height="14" rx="3" fill="#0e4429"><title>2026-04-13: 26</title></rect>
<rect x="424" y="254" width="14" height="14" rx="3" fill="#26a641"><title>2026-04-14: 88</title></rect>
<rect x="424" y="271" width="14" height="14" rx="3" fill="#0e4429"><title>2026-04-15: 9</title></rect>
<rect x="424" y="288" width="14" height="14" rx="3" fill="#006d32"><title>2026-04-16: 48</title></rect>
<rect x="424" y="305" width="14" height="14" rx="3" fill="#006d32"><title>2026-04-17: 57</title></rect>
<rect x="424" y="322" width="14" height="14" rx="3" fill="#161b22"><title>2026-04-18: 0</title></rect>
<rect x="441" y="220" width="14" height="14" rx="3" fill="#0e4429"><title>2026-04-19: 31</title></rect>
<rect x="441" y="237" width="14" height="14" rx="3" fill="#0e4429"><title>2026-04-20: 15</title></rect>
<rect x="441" y="254" width="14" height="14" rx="3" fill="#006d32"><title>2026-04-21: 41</title></rect>
<rect x="441" y="271" width="14" height="14" rx="3" fill="#39d353"><title>2026-04-22: 141</title></rect>
<rect x="441" y="288" width="14" height="14" rx="3" fill="#0e4429"><title>2026-04-23: 24</title></rect>
<rect x="441" y="305" width="14" height="14" rx="3" fill="#0e4429"><title>2026-04-24: 8</title></rect>
<rect x="441" y="322" width="14" height="14" rx="3" fill="#161b22"><title>2026-04-25: 0</title></rect>
<rect x="458" y="220" width="14" height="14" rx="3" fill="#161b22"><title>2026-04-26: 0</title></rect>
<rect x="458" y="237" width="14" height="14" rx="3" fill="#161b22"><title>2026-04-27: 0</title></rect>
<rect x="458" y="254" width="14" height="14" rx="3" fill="#006d32"><title>2026-04-28: 41</title></rect>
<rect x="458" y="271" width="14" height="14" rx="3" fill="#26a641"><title>2026-04-29: 82</title></rect>
<rect x="458" y="288" width="14" height="14" rx="3" fill="#006d32"><title>2026-04-30: 62</title></rect>
<rect x="458" y="305" width="14" height="14" rx="3" fill="#0e4429"><title>2026-05-01: 6</title></rect>
<rect x="458" y="322" width="14" height="14" rx="3" fill="#161b22"><title>2026-05-02: 0</title></rect>
<rect x="475" y="220" width="14" height="14" rx="3" fill="#161b22"><title>2026-05-03: 0</title></rect>

  <text x="50" y="359" fill="#7d8590" font-size="10" font-family="-apple-system, BlinkMacSystemFont, 'Segoe UI', Helvetica, Arial, sans-serif">Less</text>
  <rect x="80" y="349" width="12" height="12" rx="2" fill="#161b22" />
  <rect x="98" y="349" width="12" height="12" rx="2" fill="#0e4429" />
  <rect x="116" y="349" width="12" height="12" rx="2" fill="#006d32" />
  <rect x="134" y="349" width="12" height="12" rx="2" fill="#26a641" />
  <rect x="152" y="349" width="12" height="12" rx="2" fill="#39d353" />
  <text x="174" y="359" fill="#7d8590" font-size="10" font-family="-apple-system, BlinkMacSystemFont, 'Segoe UI', Helvetica, Arial, sans-serif">More</text>

  <text x="510" y="170" fill="#e6edf3" font-size="13" font-weight="600" font-family="-apple-system, BlinkMacSystemFont, 'Segoe UI', Helvetica, Arial, sans-serif">Top Languages</text>
  <text x="510" y="188" fill="#7d8590" font-size="11" font-family="-apple-system, BlinkMacSystemFont, 'Segoe UI', Helvetica, Arial, sans-serif">By repository size</text>
  
      <text x="510" y="196" fill="#e6edf3" font-size="12" font-family="-apple-system, BlinkMacSystemFont, 'Segoe UI', Helvetica, Arial, sans-serif">PHP</text>
      <text x="790" y="196" fill="#7d8590" font-size="11" text-anchor="end" font-family="-apple-system, BlinkMacSystemFont, 'Segoe UI', Helvetica, Arial, sans-serif">72%</text>
      <rect x="510" y="202" width="280" height="10" rx="5" fill="#30363d" />
      <rect x="510" y="202" width="201.6" height="10" rx="5" fill="#4F5D95" />

      <text x="510" y="230" fill="#e6edf3" font-size="12" font-family="-apple-system, BlinkMacSystemFont, 'Segoe UI', Helvetica, Arial, sans-serif">CSS</text>
      <text x="790" y="230" fill="#7d8590" font-size="11" text-anchor="end" font-family="-apple-system, BlinkMacSystemFont, 'Segoe UI', Helvetica, Arial, sans-serif">11%</text>
      <rect x="510" y="236" width="280" height="10" rx="5" fill="#30363d" />
      <rect x="510" y="236" width="30.8" height="10" rx="5" fill="#663399" />

      <text x="510" y="264" fill="#e6edf3" font-size="12" font-family="-apple-system, BlinkMacSystemFont, 'Segoe UI', Helvetica, Arial, sans-serif">Blade</text>
      <text x="790" y="264" fill="#7d8590" font-size="11" text-anchor="end" font-family="-apple-system, BlinkMacSystemFont, 'Segoe UI', Helvetica, Arial, sans-serif">9%</text>
      <rect x="510" y="270" width="280" height="10" rx="5" fill="#30363d" />
      <rect x="510" y="270" width="25.2" height="10" rx="5" fill="#f7523f" />

      <text x="510" y="298" fill="#e6edf3" font-size="12" font-family="-apple-system, BlinkMacSystemFont, 'Segoe UI', Helvetica, Arial, sans-serif">JavaScript</text>
      <text x="790" y="298" fill="#7d8590" font-size="11" text-anchor="end" font-family="-apple-system, BlinkMacSystemFont, 'Segoe UI', Helvetica, Arial, sans-serif">6%</text>
      <rect x="510" y="304" width="280" height="10" rx="5" fill="#30363d" />
      <rect x="510" y="304" width="16.8" height="10" rx="5" fill="#f1e05a" />

      <text x="510" y="332" fill="#e6edf3" font-size="12" font-family="-apple-system, BlinkMacSystemFont, 'Segoe UI', Helvetica, Arial, sans-serif">SCSS</text>
      <text x="790" y="332" fill="#7d8590" font-size="11" text-anchor="end" font-family="-apple-system, BlinkMacSystemFont, 'Segoe UI', Helvetica, Arial, sans-serif">1%</text>
      <rect x="510" y="338" width="280" height="10" rx="5" fill="#30363d" />
      <rect x="510" y="338" width="2.8000000000000003" height="10" rx="5" fill="#c6538c" />

      <text x="510" y="366" fill="#e6edf3" font-size="12" font-family="-apple-system, BlinkMacSystemFont, 'Segoe UI', Helvetica, Arial, sans-serif">Shell</text>
      <text x="790" y="366" fill="#7d8590" font-size="11" text-anchor="end" font-family="-apple-system, BlinkMacSystemFont, 'Segoe UI', Helvetica, Arial, sans-serif">1%</text>
      <rect x="510" y="372" width="280" height="10" rx="5" fill="#30363d" />
      <rect x="510" y="372" width="2.8000000000000003" height="10" rx="5" fill="#89e051" />

  <text x="510" y="360" fill="#e6edf3" font-size="13" font-weight="600" font-family="-apple-system, BlinkMacSystemFont, 'Segoe UI', Helvetica, Arial, sans-serif">Weekly Pattern</text>
  <text x="510" y="375" fill="#7d8590" font-size="11" font-family="-apple-system, BlinkMacSystemFont, 'Segoe UI', Helvetica, Arial, sans-serif">All-time commits by day</text>
  
      <rect x="510" y="419.84238178633973" width="28" height="10.157618213660244" rx="4" fill="#30363d" opacity="0.3" />
      <text x="524" y="446" fill="#7d8590" font-size="10" text-anchor="middle" font-family="-apple-system, BlinkMacSystemFont, 'Segoe UI', Helvetica, Arial, sans-serif">Sun</text>

      <rect x="551" y="404.9562171628721" width="28" height="25.04378283712785" rx="4" fill="#30363d" opacity="0.500875656742557" />
      <text x="565" y="446" fill="#7d8590" font-size="10" text-anchor="middle" font-family="-apple-system, BlinkMacSystemFont, 'Segoe UI', Helvetica, Arial, sans-serif">Mon</text>

      <rect x="592" y="392.43432574430824" width="28" height="37.56567425569177" rx="4" fill="#58a6ff" opacity="0.7513134851138353" />
      <text x="606" y="446" fill="#7d8590" font-size="10" text-anchor="middle" font-family="-apple-system, BlinkMacSystemFont, 'Segoe UI', Helvetica, Arial, sans-serif">Tue</text>

      <rect x="633" y="380" width="28" height="50" rx="4" fill="#58a6ff" opacity="1" />
      <text x="647" y="446" fill="#7d8590" font-size="10" text-anchor="middle" font-family="-apple-system, BlinkMacSystemFont, 'Segoe UI', Helvetica, Arial, sans-serif">Wed</text>

      <rect x="674" y="401.015761821366" width="28" height="28.984238178633976" rx="4" fill="#30363d" opacity="0.5796847635726795" />
      <text x="688" y="446" fill="#7d8590" font-size="10" text-anchor="middle" font-family="-apple-system, BlinkMacSystemFont, 'Segoe UI', Helvetica, Arial, sans-serif">Thu</text>

      <rect x="715" y="403.7302977232925" width="28" height="26.26970227670753" rx="4" fill="#30363d" opacity="0.5253940455341506" />
      <text x="729" y="446" fill="#7d8590" font-size="10" text-anchor="middle" font-family="-apple-system, BlinkMacSystemFont, 'Segoe UI', Helvetica, Arial, sans-serif">Fri</text>

      <rect x="756" y="425.27145359019266" width="28" height="4.728546409807356" rx="4" fill="#30363d" opacity="0.3" />
      <text x="770" y="446" fill="#7d8590" font-size="10" text-anchor="middle" font-family="-apple-system, BlinkMacSystemFont, 'Segoe UI', Helvetica, Arial, sans-serif">Sat</text>
  
  <line x1="30" y1="485" x2="810" y2="485" stroke="#30363d" stroke-width="1" />
  <text x="30" y="505" fill="#e6edf3" font-size="13" font-weight="600" font-family="-apple-system, BlinkMacSystemFont, 'Segoe UI', Helvetica, Arial, sans-serif">Organizations</text>
  <text x="30" y="522" fill="#7d8590" font-size="11" font-family="-apple-system, BlinkMacSystemFont, 'Segoe UI', Helvetica, Arial, sans-serif">Contributions across 1 organization · 2,042 total commits</text>
  
      <text x="30" y="552" fill="#e6edf3" font-size="12" font-weight="500" font-family="-apple-system, BlinkMacSystemFont, 'Segoe UI', Helvetica, Arial, sans-serif">Unique Design B.V.</text>
      <rect x="240" y="544" width="340" height="10" rx="5" fill="#30363d" />
      <rect x="240" y="544" width="340" height="10" rx="5" fill="#58a6ff" />
      <text x="810" y="552" fill="#7d8590" font-size="10" text-anchor="end" font-family="-apple-system, BlinkMacSystemFont, 'Segoe UI', Helvetica, Arial, sans-serif">2,042 commits · 27 PRs · 0 issues</text>

  <line x1="30" y1="585" x2="810" y2="585" stroke="#30363d" stroke-width="1" />
  <text x="420" y="606" fill="#7d8590" font-size="10" text-anchor="middle" font-family="-apple-system, BlinkMacSystemFont, 'Segoe UI', Helvetica, Arial, sans-serif">Generated with a custom GitHub Action</text>
</svg>